{"glyphs":{"0":{"ha":682,"x_min":69,"x_max":613,"o":"m 264 700 l 264 254 q 283 201 264 221 q 343 181 301 181 q 401 201 385 181 q 418 254 418 221 l 418 700 q 404 767 418 742 q 344 792 390 792 q 281 767 299 792 q 264 700 264 743 m 71 693 q 85 822 71 768 q 131 911 99 876 q 217 963 164 946 q 347 979 269 979 q 479 962 428 979 q 560 909 531 944 q 601 819 590 874 q 613 693 613 765 l 613 244 q 599 140 613 186 q 555 60 586 93 q 472 10 524 28 q 346 -7 421 -7 q 136 58 203 -7 q 71 244 69 124 l 71 693 z "},"1":{"ha":411,"x_min":28,"x_max":342,"o":"m 147 0 l 147 778 l 28 778 l 28 917 q 144 925 104 917 q 201 944 183 933 q 224 972 222 957 l 342 972 l 342 0 l 147 0 z "},"2":{"ha":711,"x_min":69,"x_max":642,"o":"m 69 0 l 69 188 q 97 279 69 235 q 167 367 125 324 q 257 453 208 411 q 347 537 306 496 q 417 619 389 578 q 444 700 444 660 q 430 767 444 742 q 369 792 415 792 q 308 767 325 792 q 290 701 292 742 l 290 639 l 100 639 l 100 700 q 113 821 100 768 q 157 908 126 874 q 239 961 188 943 q 367 979 290 979 q 501 962 447 979 q 585 909 554 944 q 629 820 617 874 q 642 694 642 767 q 617 590 642 640 q 554 494 592 540 q 473 406 517 447 q 392 326 429 364 q 329 253 354 288 q 304 188 304 218 l 624 188 l 624 0 l 69 0 z "},"3":{"ha":683,"x_min":69,"x_max":614,"o":"m 282 615 l 331 615 l 344 615 q 399 636 381 615 q 417 689 417 657 l 417 700 q 402 767 417 742 q 342 792 388 792 q 279 765 296 792 q 263 694 263 738 l 72 694 q 85 818 72 765 q 128 907 97 871 q 210 961 158 943 q 339 979 261 979 q 473 962 419 979 q 558 909 526 944 q 601 820 589 874 q 614 694 614 767 q 603 595 614 636 q 561 522 593 554 q 596 444 581 488 q 611 340 611 401 l 611 242 q 598 138 611 183 q 553 59 585 92 q 471 10 522 26 q 344 -7 419 -7 q 135 57 201 -7 q 69 242 69 121 l 69 349 l 263 349 l 263 242 q 281 193 263 208 q 342 178 300 178 q 400 193 383 178 q 417 242 417 208 l 417 340 q 402 404 417 381 q 342 428 388 428 l 282 428 l 282 615 z "},"4":{"ha":725,"x_min":69,"x_max":656,"o":"m 69 354 l 335 972 l 585 972 l 585 354 l 656 354 l 656 167 l 585 167 l 585 0 l 390 0 l 390 167 l 69 167 l 69 354 m 390 717 l 269 354 l 392 354 l 390 717 z "},"5":{"ha":681,"x_min":69,"x_max":611,"o":"m 69 972 l 556 972 l 556 785 l 264 785 l 264 615 q 381 672 319 661 q 494 653 443 683 q 578 546 544 622 q 611 340 611 469 q 599 222 611 272 q 569 134 588 171 q 526 72 550 97 q 478 32 503 47 q 344 -7 419 -4 q 135 57 201 -7 q 69 242 69 121 l 69 281 l 263 281 l 263 242 q 281 193 263 208 q 342 178 300 178 q 377 184 363 178 q 400 208 392 190 q 413 258 408 225 q 417 344 417 290 q 397 469 418 432 q 349 513 376 507 q 297 504 322 519 q 264 468 272 489 l 69 468 l 69 972 z "},"6":{"ha":681,"x_min":69,"x_max":611,"o":"m 611 279 q 597 150 611 204 q 551 61 583 96 q 465 10 518 26 q 335 -7 413 -7 q 203 10 254 -7 q 122 63 151 28 q 81 153 92 99 q 69 279 69 207 l 69 728 q 83 833 69 786 q 127 912 96 879 q 210 962 158 944 q 336 979 261 979 q 543 910 476 979 q 611 725 610 842 l 611 694 l 418 694 l 418 728 q 397 774 415 757 q 339 792 378 792 q 281 776 297 792 q 264 728 264 761 l 264 576 q 317 608 283 597 q 389 618 350 619 q 467 603 428 617 q 539 564 507 590 q 591 498 571 538 q 611 404 611 458 l 611 279 m 264 272 q 278 206 264 231 q 338 181 292 181 q 401 205 383 181 q 418 272 418 229 l 418 404 q 397 442 418 426 q 348 460 375 458 q 296 449 321 463 q 264 399 271 435 l 264 272 z "},"7":{"ha":528,"x_min":14,"x_max":514,"o":"m 50 0 l 322 785 l 14 785 l 14 972 l 514 972 l 514 785 l 256 0 l 50 0 z "},"8":{"ha":683,"x_min":69,"x_max":614,"o":"m 69 340 q 86 444 69 404 q 125 519 103 485 q 81 594 90 551 q 72 694 72 636 q 86 830 74 775 q 129 918 99 885 q 210 965 160 951 q 339 979 261 979 q 473 962 419 979 q 558 909 526 944 q 601 820 589 874 q 614 694 614 767 q 603 594 614 636 q 561 519 593 551 q 596 443 581 485 q 611 340 611 401 l 611 242 q 598 138 611 183 q 553 59 585 92 q 471 10 522 26 q 344 -7 419 -7 q 135 57 201 -7 q 69 242 69 121 l 69 340 m 263 340 l 263 242 q 281 193 263 208 q 342 178 300 178 q 400 193 383 178 q 417 242 417 208 l 417 340 q 402 404 417 381 q 342 428 388 428 q 279 404 296 428 q 263 340 263 381 m 263 700 l 263 689 q 278 636 263 657 q 331 615 293 615 l 344 615 q 399 636 381 615 q 417 689 417 657 l 417 700 q 402 767 417 742 q 342 792 388 792 q 279 767 296 792 q 263 700 263 743 z "},"9":{"ha":681,"x_min":69,"x_max":611,"o":"m 69 693 q 83 822 69 768 q 130 911 97 876 q 215 963 163 946 q 346 979 268 979 q 478 962 426 979 q 559 909 529 944 q 600 819 589 874 q 611 693 611 765 l 611 244 q 598 140 611 186 q 553 60 585 93 q 471 10 522 28 q 344 -7 419 -7 q 138 62 204 -7 q 69 247 71 131 l 69 272 l 263 272 l 263 244 q 284 198 265 215 q 342 181 303 181 q 400 196 383 181 q 417 244 417 211 l 417 460 q 364 427 397 438 q 292 418 331 417 q 213 433 253 419 q 142 472 174 446 q 90 538 110 499 q 69 632 69 578 l 69 693 m 417 700 q 403 767 417 742 q 343 792 389 792 q 280 767 297 792 q 263 700 263 743 l 263 632 q 284 593 263 608 q 333 576 306 578 q 385 588 360 574 q 417 638 410 601 l 417 700 z "},"O":{"ha":682,"x_min":69,"x_max":613,"o":"m 264 700 l 264 254 q 283 201 264 221 q 343 181 301 181 q 401 201 385 181 q 418 254 418 221 l 418 700 q 404 767 418 742 q 344 792 390 792 q 281 767 299 792 q 264 700 264 743 m 71 693 q 85 822 71 768 q 131 911 99 876 q 217 963 164 946 q 347 979 269 979 q 479 962 428 979 q 560 909 531 944 q 601 819 590 874 q 613 693 613 765 l 613 244 q 599 140 613 186 q 555 60 586 93 q 472 10 524 28 q 346 -7 421 -7 q 136 58 203 -7 q 71 244 69 124 l 71 693 z "},"L":{"ha":471,"x_min":69,"x_max":443,"o":"m 69 972 l 264 972 l 264 188 l 443 188 l 443 0 l 69 0 l 69 972 z "},"U":{"ha":682,"x_min":69,"x_max":613,"o":"m 265 972 l 265 694 l 265 369 q 278 225 265 269 q 344 181 292 181 q 385 192 371 181 q 408 226 400 203 q 417 284 415 249 q 418 369 418 319 l 418 694 l 418 972 l 613 972 l 613 244 q 599 140 613 186 q 555 60 586 93 q 472 10 524 28 q 346 -7 421 -7 q 136 59 203 -7 q 71 246 69 125 l 71 972 l 265 972 z "},"I":{"ha":333,"x_min":69,"x_max":264,"o":"m 69 0 l 69 972 l 264 972 l 264 0 l 69 0 z "},"E":{"ha":540,"x_min":69,"x_max":499,"o":"m 69 972 l 499 972 l 499 785 l 264 785 l 264 592 l 429 592 l 429 404 l 264 404 l 264 188 l 499 188 l 499 0 l 69 0 l 69 972 z "},"F":{"ha":540,"x_min":69,"x_max":499,"o":"m 69 972 l 499 972 l 499 785 l 264 785 l 264 513 l 429 513 l 429 325 l 264 325 l 264 0 l 69 0 l 69 972 z "},"T":{"ha":669,"x_min":28,"x_max":642,"o":"m 28 972 l 642 972 l 642 785 l 432 785 l 432 0 l 238 0 l 238 785 l 28 785 l 28 972 z "},"H":{"ha":701,"x_min":69,"x_max":632,"o":"m 69 0 l 69 972 l 265 972 l 265 599 l 438 599 l 438 972 l 632 972 l 632 0 l 438 0 l 438 411 l 265 411 l 265 0 l 69 0 z "},"P":{"ha":692,"x_min":69,"x_max":622,"o":"m 69 0 l 69 972 l 360 972 q 485 959 435 972 q 567 914 536 946 q 610 828 597 882 q 622 694 622 775 q 563 461 622 533 q 360 389 504 389 l 264 389 l 264 0 l 69 0 m 264 778 l 264 583 l 319 583 q 382 594 358 583 q 417 620 406 604 q 432 656 429 636 q 435 694 435 675 q 406 756 433 733 q 319 778 378 778 l 264 778 z "},"R":{"ha":692,"x_min":69,"x_max":622,"o":"m 69 0 l 69 972 l 338 972 q 467 958 413 972 q 556 910 521 943 q 606 825 590 878 q 622 694 622 772 q 596 553 622 611 q 531 469 569 496 q 559 436 544 456 q 585 393 574 417 q 603 343 596 369 q 611 289 611 317 l 611 0 l 417 0 l 417 261 q 411 310 417 286 q 394 351 406 333 q 364 378 383 368 q 318 389 344 389 l 264 389 l 264 0 l 69 0 m 264 778 l 264 583 l 319 583 q 382 594 358 583 q 417 620 406 604 q 432 656 429 636 q 435 694 435 675 q 406 756 433 733 q 319 778 378 778 l 264 778 z "}," ":{"ha":556,"x_min":0,"x_max":0,"o":""},"B":{"ha":714,"x_min":69,"x_max":644,"o":"m 69 0 l 69 972 l 338 972 q 467 960 413 972 q 556 919 521 949 q 606 840 590 890 q 622 711 622 789 q 615 639 622 669 q 597 585 608 608 q 568 542 585 561 q 532 504 551 522 q 572 473 551 493 q 608 424 592 453 q 634 360 624 396 q 644 282 644 325 q 622 147 644 201 q 559 60 600 93 q 460 14 518 28 q 331 0 401 0 l 69 0 m 264 194 l 301 194 q 347 195 324 194 q 390 206 371 196 q 422 240 410 215 q 433 310 433 264 q 322 431 433 431 l 264 431 l 264 194 m 264 778 l 264 625 l 343 625 q 393 634 375 625 q 421 657 411 643 q 433 685 431 671 q 435 711 435 700 q 411 756 433 733 q 343 778 389 778 l 264 778 z "},"D":{"ha":626,"x_min":69,"x_max":557,"o":"m 69 0 l 69 972 l 313 972 q 434 953 386 972 q 509 897 482 933 q 547 810 536 861 q 557 694 557 758 l 557 247 q 544 145 557 190 q 503 67 532 100 q 427 17 474 35 q 313 0 381 0 l 69 0 m 371 633 q 368 684 371 658 q 355 731 365 710 q 323 765 344 751 q 264 778 301 778 l 264 194 l 263 194 q 349 227 328 194 q 371 310 371 260 l 371 633 z "},"M":{"ha":715,"x_min":69,"x_max":646,"o":"m 451 599 l 357 146 l 264 599 l 264 0 l 69 0 l 69 972 l 264 972 l 357 633 l 451 972 l 646 972 l 646 0 l 451 0 l 451 599 z "},"V":{"ha":647,"x_min":7,"x_max":640,"o":"m 7 972 l 194 972 l 325 554 l 453 972 l 640 972 l 324 -1 l 7 972 z "},"W":{"ha":1072,"x_min":7,"x_max":1065,"o":"m 7 972 l 201 972 l 324 565 l 525 972 l 708 565 l 871 972 l 1065 972 l 703 -1 l 524 449 l 324 -1 l 7 972 z "},"Y":{"ha":689,"x_min":7,"x_max":682,"o":"m 257 357 l 7 972 l 188 972 l 357 639 l 508 972 l 682 972 l 451 357 l 451 0 l 257 0 l 257 357 z "},"X":{"ha":708,"x_min":7,"x_max":701,"o":"m 7 0 l 214 493 l 7 972 l 222 972 l 350 728 l 483 972 l 699 972 l 476 493 l 701 0 l 476 0 l 349 256 l 232 0 l 7 0 z "},"C":{"ha":682,"x_min":69,"x_max":613,"o":"m 418 635 l 418 700 q 404 767 418 742 q 344 792 390 792 q 281 767 299 792 q 264 700 264 743 l 264 254 q 283 201 264 221 q 343 181 301 181 q 401 201 385 181 q 418 254 418 221 l 418 329 l 613 329 l 613 244 q 599 140 613 186 q 555 60 586 93 q 472 10 524 28 q 346 -7 421 -7 q 136 58 203 -7 q 71 244 69 124 l 71 693 q 85 822 71 768 q 131 911 99 876 q 217 963 164 946 q 347 979 269 979 q 479 962 428 979 q 560 909 531 944 q 601 819 590 874 q 613 693 613 765 l 613 635 l 418 635 m 613 329 l 418 329 l 613 329 z "},"Q":{"ha":682,"x_min":69,"x_max":613,"o":"m 71 693 q 85 822 71 768 q 131 911 99 876 q 217 963 164 946 q 347 979 269 979 q 479 962 428 979 q 560 909 531 944 q 601 819 590 874 q 613 693 613 765 l 613 244 q 593 123 613 175 q 529 39 574 71 q 542 17 535 28 q 558 -3 549 7 q 578 -22 567 -14 l 397 -22 q 386 -14 397 -22 l 375 -6 q 360 -7 368 -7 q 346 -7 353 -7 q 136 58 203 -7 q 71 244 69 124 l 71 693 m 264 700 l 264 254 q 283 201 264 221 q 343 181 301 181 q 401 201 385 181 q 418 254 418 221 l 418 700 q 404 767 418 742 q 344 792 390 792 q 281 767 299 792 q 264 700 264 743 m 338 172 q 310 207 324 188 q 286 238 297 226 l 446 238 q 467 216 457 232 q 486 189 476 200 l 338 172 z "},"G":{"ha":685,"x_min":69,"x_max":657,"o":"m 374 481 l 657 481 l 657 293 q 635 288 644 293 q 619 273 626 283 q 613 244 613 263 q 612 194 613 224 q 614 130 611 164 q 626 60 617 96 q 656 -8 636 25 l 472 -8 q 467 -1 469 -4 q 463 7 465 1 q 346 -7 415 -7 q 136 58 203 -7 q 71 244 69 124 l 71 693 q 85 822 71 768 q 131 911 99 876 q 217 963 164 946 q 347 979 269 979 q 479 962 428 979 q 560 909 531 944 q 601 819 590 874 q 613 693 613 765 l 613 635 l 418 635 l 418 700 q 404 767 418 742 q 344 792 390 792 q 281 767 299 792 q 264 700 264 743 l 264 254 q 283 201 264 221 q 343 181 301 181 q 401 201 385 181 q 418 254 418 221 q 411 276 418 269 q 396 288 404 283 q 374 293 386 292 l 374 481 z "},"J":{"ha":682,"x_min":69,"x_max":613,"o":"m 274 972 l 613 972 l 613 244 q 599 140 613 186 q 555 60 586 93 q 472 10 524 28 q 346 -7 421 -7 q 136 59 203 -7 q 71 246 69 125 l 71 403 l 265 403 l 265 369 q 278 225 265 269 q 344 181 292 181 q 385 192 371 181 q 408 226 400 203 q 417 284 415 249 q 418 369 418 319 l 418 785 l 274 785 l 274 972 z "},"A":{"ha":588,"x_min":7,"x_max":581,"o":"m 199 972 l 418 972 l 581 0 l 396 0 l 378 122 l 219 122 l 193 0 l 7 0 l 199 972 m 249 310 l 357 310 l 308 669 l 249 310 z "},"Z":{"ha":599,"x_min":14,"x_max":585,"o":"m 585 188 l 585 0 l 14 0 l 14 188 l 353 785 l 14 785 l 14 972 l 569 972 l 571 785 l 572 785 l 229 188 l 585 188 z "},"K":{"ha":606,"x_min":69,"x_max":590,"o":"m 69 0 l 69 972 l 264 972 l 264 700 l 411 972 l 590 972 l 392 504 l 590 0 l 404 0 l 264 274 l 264 0 l 69 0 z "},"S":{"ha":654,"x_min":56,"x_max":599,"o":"m 57 693 q 71 822 57 768 q 117 911 85 876 q 201 963 149 946 q 332 979 254 979 q 464 962 413 979 q 545 909 515 944 q 587 820 575 874 q 599 694 599 767 l 404 694 l 404 700 q 389 767 404 742 q 328 792 374 792 q 266 764 282 792 q 250 693 250 736 q 276 628 250 657 q 340 573 301 600 q 424 516 379 546 q 508 448 469 486 q 573 360 547 410 q 599 244 599 311 q 585 140 599 186 q 541 60 572 93 q 458 10 510 28 q 332 -7 407 -7 q 122 58 189 -7 q 57 244 56 124 l 57 281 l 250 296 l 250 254 q 268 201 250 221 q 328 181 286 181 q 387 196 369 181 q 404 244 404 211 q 378 304 404 275 q 314 363 353 333 q 231 425 275 392 q 147 497 186 458 q 83 584 108 536 q 57 693 57 632 z "},"!":{"ha":333,"x_min":69,"x_max":264,"o":"m 264 972 l 236 292 l 97 292 l 69 972 l 264 972 m 75 0 l 75 188 l 263 188 l 263 0 l 75 0 z "},"?":{"ha":681,"x_min":69,"x_max":611,"o":"m 265 286 l 265 368 q 288 454 265 415 q 340 531 311 493 q 391 608 368 568 q 414 700 414 649 q 399 767 414 742 q 339 792 385 792 q 278 767 294 792 q 260 701 261 742 l 260 639 l 69 639 l 69 700 q 83 821 69 768 q 126 908 96 874 q 208 961 157 943 q 336 979 260 979 q 470 962 417 979 q 555 909 524 944 q 599 820 586 874 q 611 694 611 767 q 589 589 611 632 q 540 511 567 546 q 490 443 513 476 q 468 367 468 410 l 468 286 l 265 286 m 458 0 l 458 188 l 271 188 l 271 0 l 458 0 z "},"\"":{"ha":638,"x_min":69,"x_max":568,"o":"m 69 632 l 69 813 l 151 972 l 292 972 l 206 813 l 257 813 l 257 632 l 69 632 m 346 632 l 346 813 l 428 972 l 568 972 l 482 813 l 533 813 l 533 632 l 346 632 z "},"“":{"ha":638,"x_min":69,"x_max":568,"o":"m 69 632 l 69 813 l 151 972 l 292 972 l 206 813 l 257 813 l 257 632 l 69 632 m 346 632 l 346 813 l 428 972 l 568 972 l 482 813 l 533 813 l 533 632 l 346 632 z "},"”":{"ha":638,"x_min":69,"x_max":568,"o":"m 568 972 l 568 792 l 486 632 l 346 632 l 432 792 l 381 792 l 381 972 l 568 972 m 292 972 l 292 792 l 210 632 l 69 632 l 156 792 l 104 792 l 104 972 l 292 972 z "},"'":{"ha":333,"x_min":69,"x_max":264,"o":"m 264 972 l 236 681 l 97 681 l 69 972 l 264 972 z "},"(":{"ha":483,"x_min":69,"x_max":414,"o":"m 407 -49 q 256 -17 319 -49 q 150 65 192 15 q 89 176 108 115 q 69 296 69 238 l 69 693 q 92 813 69 751 q 157 926 114 875 q 265 1009 200 976 q 414 1042 329 1042 l 414 854 q 338 840 368 854 q 289 803 307 826 q 264 752 271 781 q 257 694 257 724 l 257 296 q 263 231 257 260 q 285 181 268 201 q 331 150 301 161 q 407 139 360 139 l 407 -49 z "},")":{"ha":483,"x_min":69,"x_max":414,"o":"m 76 139 q 153 150 124 139 q 199 181 182 161 q 221 231 215 201 q 226 296 226 260 l 226 694 q 219 752 226 724 q 194 803 213 781 q 146 840 176 826 q 69 854 115 854 l 69 1042 q 219 1009 154 1042 q 326 926 283 976 q 392 813 369 875 q 414 693 414 751 l 414 296 q 394 176 414 238 q 333 65 375 115 q 228 -17 292 15 q 76 -49 164 -49 l 76 139 z "},"%":{"ha":965,"x_min":69,"x_max":896,"o":"m 190 826 l 190 581 q 193 551 190 563 q 219 540 196 540 q 245 551 243 540 q 247 581 247 563 l 247 826 q 247 863 247 850 q 221 876 246 876 q 193 863 196 876 q 190 826 190 850 m 71 822 q 103 942 71 906 q 222 979 136 979 q 295 969 267 979 q 340 940 324 960 q 362 891 356 921 q 368 822 368 861 l 368 575 q 336 474 368 511 q 221 438 304 438 q 106 473 142 438 q 71 575 69 508 l 71 822 m 379 0 l 781 972 l 592 972 l 183 0 l 379 0 m 718 382 l 718 136 q 721 107 718 118 q 747 96 724 96 q 773 107 771 96 q 775 136 775 118 l 775 382 q 774 419 775 406 q 749 432 774 432 q 721 419 724 432 q 718 382 718 406 m 599 378 q 631 498 599 461 q 750 535 664 535 q 823 525 794 535 q 867 496 851 515 q 890 447 883 476 q 896 378 896 417 l 896 131 q 864 30 896 67 q 749 -7 832 -7 q 633 28 669 -7 q 599 131 597 64 l 599 378 z "},"/":{"ha":736,"x_min":69,"x_max":667,"o":"m 69 0 l 478 972 l 667 972 l 265 0 l 69 0 z "},"\\":{"ha":736,"x_min":69,"x_max":667,"o":"m 667 0 l 258 972 l 69 972 l 471 0 l 667 0 z "},"|":{"ha":335,"x_min":69,"x_max":265,"o":"m 69 0 l 76 972 l 265 972 l 265 0 l 69 0 z "},"[":{"ha":431,"x_min":69,"x_max":361,"o":"m 353 854 l 264 854 l 264 139 l 361 139 l 361 -49 l 69 -49 l 69 1042 l 354 1042 l 353 854 z "},"]":{"ha":431,"x_min":69,"x_max":361,"o":"m 76 1042 l 361 1042 l 361 -49 l 69 -49 l 69 139 l 167 139 l 167 854 l 78 854 l 76 1042 z "},"#":{"ha":750,"x_min":69,"x_max":681,"o":"m 681 549 l 608 549 l 589 415 l 657 415 l 657 271 l 574 271 l 538 0 l 379 0 l 419 271 l 324 271 l 288 0 l 129 0 l 169 271 l 69 271 l 69 415 l 185 415 l 207 549 l 97 549 l 97 693 l 222 693 l 260 972 l 407 972 l 372 693 l 472 693 l 510 972 l 657 972 l 622 693 l 681 693 l 681 549 m 339 415 l 435 415 l 457 549 l 358 549 l 339 415 z "},"{":{"ha":532,"x_min":69,"x_max":463,"o":"m 313 138 q 331 100 313 110 q 350 94 339 94 l 461 94 l 461 -93 l 183 -93 q 149 -83 161 -93 q 132 -58 138 -72 q 125 -24 126 -43 l 125 369 q 117 403 125 393 q 97 415 108 413 q 69 415 85 419 l 69 576 q 97 572 85 571 q 117 581 108 574 q 125 611 125 589 l 125 972 q 132 1007 126 992 q 149 1031 138 1019 q 183 1042 161 1042 l 463 1042 l 463 854 l 350 854 q 331 849 339 854 q 318 836 324 844 q 313 813 313 828 l 313 583 q 311 540 317 560 q 293 509 307 524 q 249 493 279 494 q 292 476 278 490 q 310 443 306 461 q 313 397 315 422 l 313 138 z "},"}":{"ha":532,"x_min":69,"x_max":463,"o":"m 219 397 q 222 443 217 422 q 240 476 226 461 q 283 493 253 490 q 239 509 253 494 q 221 540 225 524 q 219 583 215 560 l 219 813 q 213 836 219 828 q 200 849 207 844 q 182 854 192 854 l 69 854 l 69 1042 l 349 1042 q 383 1031 371 1042 q 400 1007 394 1019 q 407 972 406 992 l 407 611 q 415 581 407 589 q 435 572 424 574 q 463 576 447 571 l 463 415 q 435 415 447 419 q 415 403 424 413 q 407 369 407 393 l 407 -24 q 400 -58 406 -43 q 383 -83 394 -72 q 349 -93 371 -93 l 71 -93 l 71 94 l 182 94 q 200 100 192 94 q 213 113 207 104 q 219 138 219 122 l 219 397 z "},".":{"ha":326,"x_min":69,"x_max":257,"o":"m 69 0 l 69 188 l 257 188 l 257 0 l 69 0 z "},":":{"ha":326,"x_min":69,"x_max":257,"o":"m 69 424 l 69 611 l 257 611 l 257 424 l 69 424 m 69 0 l 69 188 l 257 188 l 257 0 l 69 0 z "},";":{"ha":361,"x_min":69,"x_max":292,"o":"m 104 424 l 104 611 l 292 611 l 292 424 l 104 424 m 292 181 l 292 0 l 210 -160 l 69 -160 l 156 0 l 104 0 l 104 181 l 292 181 z "},",":{"ha":361,"x_min":69,"x_max":292,"o":"m 292 181 l 292 0 l 210 -160 l 69 -160 l 156 0 l 104 0 l 104 181 l 292 181 z "},"=":{"ha":588,"x_min":69,"x_max":518,"o":"m 518 438 l 518 292 l 69 292 l 69 438 l 518 438 m 518 665 l 518 519 l 69 519 l 69 665 l 518 665 z "},"-":{"ha":421,"x_min":69,"x_max":351,"o":"m 69 394 l 69 582 l 351 582 l 351 394 l 69 394 z "},"+":{"ha":629,"x_min":69,"x_max":560,"o":"m 221 396 l 69 396 l 69 583 l 221 583 l 221 735 l 415 735 l 415 583 l 560 583 l 560 396 l 415 396 l 415 244 l 221 244 l 221 396 z "},"<":{"ha":601,"x_min":69,"x_max":532,"o":"m 532 749 l 532 590 l 326 494 l 532 408 l 532 250 l 69 429 l 69 567 l 532 749 z "},">":{"ha":601,"x_min":69,"x_max":532,"o":"m 69 749 l 69 590 l 275 494 l 69 408 l 69 250 l 532 429 l 532 567 l 69 749 z "},"÷":{"ha":574,"x_min":69,"x_max":504,"o":"m 504 547 l 504 403 l 69 403 l 69 547 l 504 547 m 224 208 l 224 333 l 356 333 l 356 208 l 224 208 m 224 611 l 224 736 l 356 736 l 356 611 l 224 611 z "},"×":{"ha":624,"x_min":69,"x_max":554,"o":"m 308 343 l 201 236 l 69 368 l 176 475 l 69 583 l 207 721 l 314 613 l 417 715 l 549 583 l 446 481 l 554 374 l 417 236 l 308 343 z "},"*":{"ha":621,"x_min":69,"x_max":551,"o":"m 246 608 l 172 485 l 69 601 l 194 713 l 90 832 l 193 949 l 246 825 l 232 972 l 378 972 l 364 825 l 431 949 l 533 832 l 414 713 l 551 604 l 449 488 l 364 608 l 378 468 l 232 468 l 246 608 z "},"©":{"ha":883,"x_min":69,"x_max":814,"o":"m 69 365 q 99 510 69 442 q 178 628 128 578 q 297 708 229 679 q 442 738 364 738 q 586 708 518 738 q 705 628 654 679 q 785 510 756 578 q 814 365 814 442 q 785 220 814 288 q 705 102 756 153 q 586 22 654 51 q 442 -7 518 -7 q 297 22 364 -7 q 178 102 229 51 q 99 220 128 153 q 69 365 69 288 m 199 365 q 217 271 199 315 q 269 193 236 226 q 347 141 303 160 q 442 122 392 122 q 535 141 492 122 q 613 193 579 160 q 665 271 646 226 q 683 365 683 315 q 665 459 683 415 q 613 536 646 503 q 535 588 579 569 q 442 607 492 607 q 347 588 392 607 q 269 536 303 569 q 217 459 236 503 q 199 365 199 415 m 472 431 l 472 460 q 466 490 472 479 q 440 501 460 501 q 412 490 419 501 q 404 460 404 479 l 404 260 q 439 226 404 226 q 465 235 458 226 q 472 260 472 244 l 472 293 l 560 293 l 560 256 q 534 172 560 203 q 440 142 508 142 q 346 172 375 142 q 317 256 317 201 l 317 457 q 344 556 317 525 q 442 586 371 586 q 537 555 514 586 q 560 457 560 524 l 560 431 l 472 431 m 472 293 l 560 293 l 472 293 z "},"®":{"ha":883,"x_min":69,"x_max":814,"o":"m 69 365 q 99 510 69 442 q 178 628 128 578 q 297 708 229 679 q 442 738 364 738 q 586 708 518 738 q 705 628 654 679 q 785 510 756 578 q 814 365 814 442 q 785 220 814 288 q 705 102 756 153 q 586 22 654 51 q 442 -7 518 -7 q 297 22 364 -7 q 178 102 229 51 q 99 220 128 153 q 69 365 69 288 m 199 365 q 217 271 199 315 q 269 193 236 226 q 347 141 303 160 q 442 122 392 122 q 535 141 492 122 q 613 193 579 160 q 665 271 646 226 q 683 365 683 315 q 665 459 683 415 q 613 536 646 503 q 535 588 579 569 q 442 607 492 607 q 347 588 392 607 q 269 536 303 569 q 217 459 236 503 q 199 365 199 415 m 333 171 l 333 560 l 442 560 q 529 535 503 560 q 556 449 556 511 q 544 392 556 415 q 518 358 533 369 q 540 328 529 347 q 550 286 550 308 l 550 171 l 472 171 l 472 275 q 464 311 472 296 q 433 326 456 326 l 411 326 l 411 171 l 333 171 m 411 482 l 411 404 l 433 404 q 473 419 465 404 q 481 449 481 433 q 433 482 478 482 l 411 482 z "},"$":{"ha":654,"x_min":56,"x_max":599,"o":"m 431 1064 l 431 971 q 513 938 481 960 q 564 881 544 915 q 591 800 583 847 q 599 694 599 753 l 404 694 l 404 700 q 389 767 404 742 q 328 792 374 792 q 266 764 282 792 q 250 693 250 736 q 276 628 250 657 q 340 573 301 600 q 424 516 379 546 q 508 448 469 486 q 573 360 547 410 q 599 244 599 311 q 562 86 599 149 q 432 3 525 24 l 432 -97 l 238 -97 l 238 1 q 99 84 143 22 q 57 244 56 146 l 57 281 l 250 296 l 250 254 q 268 201 250 221 q 328 181 286 181 q 387 196 369 181 q 404 244 404 211 q 378 304 404 275 q 314 363 353 333 q 231 425 275 392 q 147 497 186 458 q 83 584 108 536 q 57 693 57 632 q 97 885 57 818 q 236 971 136 951 l 236 1064 l 431 1064 z "},"@":{"ha":1025,"x_min":69,"x_max":956,"o":"m 811 -4 q 697 -32 758 -24 q 575 -38 644 -39 q 426 -17 506 -37 q 286 49 351 3 q 173 162 221 96 q 97 310 125 228 q 71 486 69 393 q 111 676 71 586 q 216 833 151 767 q 363 939 281 900 q 532 976 446 978 q 722 931 642 976 q 853 814 801 885 q 931 656 906 743 q 954 486 956 569 q 928 340 953 408 q 856 231 904 272 q 737 184 808 189 q 571 228 665 179 q 569 226 575 229 q 553 220 564 224 q 531 214 543 217 q 511 213 519 211 q 438 224 471 213 q 384 256 406 235 q 351 305 363 276 q 343 365 340 333 l 349 563 q 365 652 344 614 q 419 711 385 690 q 494 733 453 732 q 576 714 536 735 l 576 743 l 675 742 l 656 328 l 683 326 q 738 342 717 328 q 769 378 758 356 q 785 429 781 401 q 790 486 790 457 q 778 622 792 558 q 733 732 764 685 q 651 806 701 779 q 531 831 601 832 q 409 803 465 828 q 312 733 353 778 q 248 626 271 689 q 225 486 225 564 q 235 364 224 418 q 273 267 246 310 q 344 191 300 224 q 450 133 388 158 q 558 110 501 114 q 666 113 614 107 q 760 130 718 118 q 822 153 801 142 l 811 -4 m 482 433 q 483 404 481 415 q 510 390 486 393 q 535 400 533 389 q 539 429 538 411 l 543 508 q 544 545 544 532 q 519 560 544 558 q 492 549 494 563 q 486 511 489 535 l 482 433 z "},"&":{"ha":746,"x_min":69,"x_max":676,"o":"m 614 244 q 613 194 614 224 q 615 130 613 164 q 628 60 618 96 q 657 -8 638 25 l 474 -8 q 467 -1 469 -4 q 463 10 464 3 q 339 -7 410 -7 q 213 10 264 -7 q 130 59 161 26 q 85 138 99 92 q 72 242 72 183 l 72 340 q 88 444 72 401 q 122 522 103 488 q 80 595 90 554 q 69 694 69 636 q 82 817 69 765 q 125 903 94 869 q 207 954 156 938 q 336 972 258 971 l 553 972 l 553 792 l 328 792 q 278 763 290 788 q 267 700 267 739 l 267 689 q 285 636 267 657 q 339 615 303 615 l 421 615 l 421 693 l 614 693 l 614 615 l 676 615 l 676 428 l 614 428 l 614 244 m 267 340 l 267 242 q 283 193 267 208 q 342 178 300 178 q 402 193 383 178 q 421 242 421 208 l 421 428 l 342 428 q 281 404 296 428 q 267 340 267 381 z "},"¢":{"ha":682,"x_min":69,"x_max":613,"o":"m 418 635 l 418 700 q 404 767 418 742 q 344 792 390 792 q 281 767 299 792 q 264 700 264 743 l 264 254 q 283 201 264 221 q 343 181 301 181 q 401 201 385 181 q 418 254 418 221 l 418 329 l 613 329 l 613 244 q 573 83 613 146 q 432 0 533 19 l 432 -97 l 238 -97 l 238 6 q 110 88 150 28 q 71 244 69 149 l 71 693 q 108 880 71 814 q 238 968 146 946 l 238 1064 l 432 1064 l 432 972 q 521 942 486 964 q 576 885 556 919 q 605 802 597 850 q 613 693 613 754 l 613 635 l 418 635 z "},"¥":{"ha":689,"x_min":7,"x_max":682,"o":"m 222 443 l 7 972 l 188 972 l 357 639 l 508 972 l 682 972 l 483 443 l 578 443 l 578 297 l 451 297 l 451 233 l 578 233 l 578 88 l 451 88 l 451 0 l 257 0 l 257 88 l 129 88 l 129 233 l 257 233 l 257 297 l 129 297 l 129 443 l 222 443 z "},"€":{"ha":738,"x_min":69,"x_max":668,"o":"m 463 638 l 463 519 l 319 519 l 319 465 l 463 465 l 463 347 l 319 347 l 319 254 q 338 201 319 221 q 399 181 357 181 q 457 201 440 181 q 474 254 474 221 l 474 329 l 668 329 l 668 244 q 655 140 668 186 q 610 60 642 93 q 528 10 579 28 q 401 -7 476 -7 q 192 58 258 -7 q 126 244 125 124 l 126 347 l 69 347 l 69 465 l 126 465 l 126 519 l 69 519 l 69 638 l 126 638 l 126 693 q 140 822 126 768 q 187 911 154 876 q 272 963 219 946 q 403 979 325 979 q 535 962 483 979 q 616 909 586 944 q 657 819 646 874 q 668 693 668 765 l 668 635 l 474 635 l 474 700 q 460 767 474 742 q 400 792 446 792 q 337 767 354 792 q 319 700 319 743 l 319 638 l 463 638 z "},"™":{"ha":761,"x_min":69,"x_max":692,"o":"m 69 972 l 376 972 l 376 878 l 272 878 l 272 486 l 175 486 l 175 878 l 69 878 l 69 972 m 594 785 l 547 558 l 501 785 l 501 486 l 404 486 l 404 972 l 501 972 l 547 803 l 594 972 l 692 972 l 692 486 l 594 486 l 594 785 z "},"£":{"ha":751,"x_min":69,"x_max":682,"o":"m 369 354 q 351 288 367 318 q 315 234 335 257 q 277 197 296 211 q 250 181 258 183 l 682 181 l 682 0 l 69 0 l 69 181 l 71 181 q 99 194 76 181 q 146 231 121 208 q 192 286 171 254 q 213 354 213 318 l 111 354 l 111 499 l 185 499 q 161 550 174 525 q 138 601 149 575 q 119 658 126 628 q 113 724 113 688 q 125 837 113 789 q 168 917 138 885 q 249 964 199 949 q 375 979 300 979 q 509 962 456 979 q 595 909 563 944 q 641 820 628 874 q 654 694 654 767 l 478 694 l 478 708 q 469 767 478 744 q 445 803 460 790 q 413 822 431 817 q 375 826 394 826 q 324 803 342 826 q 306 724 306 779 q 310 683 306 708 q 321 628 314 658 q 336 563 328 597 q 354 499 344 529 l 560 499 l 560 354 l 369 354 z "},"¨":{"ha":404,"x_min":7,"x_max":397,"o":"m 238 714 l 238 881 l 397 881 l 397 714 l 238 714 m 7 714 l 7 881 l 167 881 l 167 714 l 7 714 z "},"←":{"ha":789,"x_min":69,"x_max":719,"o":"m 532 776 l 532 632 l 369 583 l 719 583 l 719 0 l 575 0 l 575 425 l 365 425 l 532 367 l 532 222 l 69 471 l 69 525 l 532 776 z "},"↑":{"ha":693,"x_min":69,"x_max":624,"o":"m 624 317 l 479 317 l 431 479 l 431 0 l 272 1 l 272 483 l 214 317 l 69 317 l 318 779 l 372 779 l 624 317 z "},"→":{"ha":789,"x_min":69,"x_max":719,"o":"m 257 776 l 257 632 l 419 583 l 69 583 l 69 0 l 214 0 l 214 425 l 424 425 l 257 367 l 257 222 l 719 471 l 719 525 l 257 776 z "},"↓":{"ha":693,"x_min":69,"x_max":624,"o":"m 624 463 l 479 463 l 431 300 l 431 779 l 272 778 l 272 296 l 214 463 l 69 463 l 318 0 l 372 0 l 624 463 z "},"↖":{"ha":769,"x_min":69,"x_max":700,"o":"m 613 533 l 510 432 l 361 513 l 700 174 l 586 63 l 246 403 l 322 244 l 221 142 l 69 644 l 107 683 l 613 533 z "},"↗":{"ha":760,"x_min":69,"x_max":690,"o":"m 540 142 l 439 244 l 519 393 l 181 54 l 69 168 l 410 508 l 251 432 l 149 533 l 651 685 l 690 647 l 540 142 z "},"↘":{"ha":760,"x_min":69,"x_max":690,"o":"m 690 132 l 651 94 l 149 246 l 251 347 l 410 271 l 69 611 l 181 725 l 519 386 l 439 535 l 540 638 l 690 132 z "},"↙":{"ha":769,"x_min":69,"x_max":700,"o":"m 107 96 l 69 135 l 221 638 l 322 535 l 246 376 l 586 717 l 700 606 l 361 267 l 510 347 l 613 246 l 107 96 z "},"_":{"ha":435,"x_min":7,"x_max":428,"o":"m 428 0 l 428 -187 l 7 -187 l 7 0 l 428 0 z "},"^":{"ha":554,"x_min":83,"x_max":471,"o":"m 471 694 l 326 694 l 274 772 l 228 694 l 83 694 l 221 879 l 331 879 l 471 694 z "},"Â":{"ha":588,"x_min":7,"x_max":581,"o":"m 199 972 l 418 972 l 581 0 l 396 0 l 378 122 l 219 122 l 193 0 l 7 0 l 199 972 m 249 310 l 357 310 l 308 669 l 249 310 m 504 1042 l 360 1042 l 307 1119 l 261 1042 l 117 1042 l 254 1226 l 364 1226 l 504 1042 z "},"~":{"ha":664,"x_min":83,"x_max":594,"o":"m 83 590 q 124 667 100 633 q 171 718 143 694 q 235 743 199 742 q 283 732 263 743 q 324 708 304 721 q 364 683 343 694 q 413 671 385 671 q 447 682 432 671 q 475 708 463 693 q 501 747 489 725 l 594 676 q 544 611 571 639 q 492 566 521 586 q 433 546 464 546 q 373 556 392 546 q 342 580 354 567 q 316 603 329 593 q 272 614 303 614 q 238 603 253 614 q 213 576 224 592 q 195 547 201 561 q 186 525 189 532 l 83 590 z "},"Ã":{"ha":588,"x_min":7,"x_max":581,"o":"m 199 972 l 418 972 l 581 0 l 396 0 l 378 122 l 219 122 l 193 0 l 7 0 l 199 972 m 249 310 l 357 310 l 308 669 l 249 310 m 50 1079 q 90 1156 67 1122 q 138 1207 110 1183 q 201 1232 165 1231 q 250 1221 229 1232 q 290 1197 271 1210 q 331 1172 310 1183 q 379 1160 351 1160 q 414 1171 399 1160 q 442 1197 429 1182 q 468 1236 456 1214 l 561 1165 q 511 1100 538 1128 q 459 1055 488 1075 q 400 1035 431 1035 q 340 1045 358 1035 q 308 1069 321 1056 q 283 1092 296 1082 q 239 1103 269 1103 q 205 1092 219 1103 q 179 1065 190 1081 q 162 1035 168 1050 q 153 1014 156 1021 l 50 1079 z "},"Ê":{"ha":540,"x_min":69,"x_max":499,"o":"m 69 972 l 499 972 l 499 785 l 264 785 l 264 592 l 429 592 l 429 404 l 264 404 l 264 188 l 499 188 l 499 0 l 69 0 l 69 972 m 471 1042 l 326 1042 l 274 1119 l 228 1042 l 83 1042 l 221 1226 l 331 1226 l 471 1042 z "},"Î":{"ha":360,"x_min":-14,"x_max":374,"o":"m 83 0 l 83 972 l 278 972 l 278 0 l 83 0 m 374 1042 l 229 1042 l 176 1119 l 131 1042 l -14 1042 l 124 1226 l 233 1226 l 374 1042 z "},"Ñ":{"ha":701,"x_min":69,"x_max":632,"o":"m 69 972 l 264 972 l 438 492 l 438 972 l 632 972 l 632 0 l 438 0 l 264 465 l 264 0 l 69 0 l 69 972 m 90 1076 q 131 1153 107 1119 q 178 1204 150 1181 q 242 1229 206 1228 q 290 1218 269 1229 q 331 1194 311 1207 q 371 1169 350 1181 q 419 1157 392 1157 q 454 1168 439 1157 q 482 1194 469 1179 q 508 1233 496 1211 l 601 1163 q 551 1097 578 1125 q 499 1052 528 1072 q 440 1032 471 1032 q 380 1042 399 1032 q 349 1066 361 1053 q 323 1090 336 1079 q 279 1100 310 1100 q 245 1089 260 1100 q 219 1063 231 1078 q 202 1033 208 1047 q 193 1011 196 1018 l 90 1076 z "},"Ô":{"ha":682,"x_min":69,"x_max":613,"o":"m 264 700 l 264 254 q 283 201 264 221 q 343 181 301 181 q 401 201 385 181 q 418 254 418 221 l 418 700 q 404 767 418 742 q 344 792 390 792 q 281 767 299 792 q 264 700 264 743 m 71 693 q 85 822 71 768 q 131 911 99 876 q 217 963 164 946 q 347 979 269 979 q 479 962 428 979 q 560 909 531 944 q 601 819 590 874 q 613 693 613 765 l 613 244 q 599 140 613 186 q 555 60 586 93 q 472 10 524 28 q 346 -7 421 -7 q 136 58 203 -7 q 71 244 69 124 l 71 693 m 543 1042 l 399 1042 l 346 1119 l 300 1042 l 156 1042 l 293 1226 l 403 1226 l 543 1042 z "},"Õ":{"ha":682,"x_min":69,"x_max":613,"o":"m 264 700 l 264 254 q 283 201 264 221 q 343 181 301 181 q 401 201 385 181 q 418 254 418 221 l 418 700 q 404 767 418 742 q 344 792 390 792 q 281 767 299 792 q 264 700 264 743 m 71 693 q 85 822 71 768 q 131 911 99 876 q 217 963 164 946 q 347 979 269 979 q 479 962 428 979 q 560 909 531 944 q 601 819 590 874 q 613 693 613 765 l 613 244 q 599 140 613 186 q 555 60 586 93 q 472 10 524 28 q 346 -7 421 -7 q 136 58 203 -7 q 71 244 69 124 l 71 693 m 86 1076 q 126 1153 103 1119 q 174 1204 146 1181 q 238 1229 201 1228 q 286 1218 265 1229 q 326 1194 307 1207 q 367 1169 346 1181 q 415 1157 388 1157 q 450 1168 435 1157 q 478 1194 465 1179 q 504 1233 492 1211 l 597 1163 q 547 1097 574 1125 q 495 1052 524 1072 q 436 1032 467 1032 q 376 1042 394 1032 q 344 1066 357 1053 q 319 1090 332 1079 q 275 1100 306 1100 q 241 1089 256 1100 q 215 1063 226 1078 q 198 1033 204 1047 q 189 1011 192 1018 l 86 1076 z "},"Û":{"ha":682,"x_min":69,"x_max":613,"o":"m 265 972 l 265 694 l 265 369 q 278 225 265 269 q 344 181 292 181 q 385 192 371 181 q 408 226 400 203 q 417 284 415 249 q 418 369 418 319 l 418 694 l 418 972 l 613 972 l 613 244 q 599 140 613 186 q 555 60 586 93 q 472 10 524 28 q 346 -7 421 -7 q 136 59 203 -7 q 71 246 69 125 l 71 972 l 265 972 m 542 1042 l 397 1042 l 344 1119 l 299 1042 l 154 1042 l 292 1226 l 401 1226 l 542 1042 z "},"Ä":{"ha":588,"x_min":7,"x_max":581,"o":"m 344 1014 l 344 1181 l 504 1181 l 504 1014 l 344 1014 m 114 1014 l 114 1181 l 274 1181 l 274 1014 l 114 1014 m 199 972 l 418 972 l 581 0 l 396 0 l 378 122 l 219 122 l 193 0 l 7 0 l 199 972 m 249 310 l 357 310 l 308 669 l 249 310 z "},"Ë":{"ha":540,"x_min":69,"x_max":499,"o":"m 69 972 l 499 972 l 499 785 l 264 785 l 264 592 l 429 592 l 429 404 l 264 404 l 264 188 l 499 188 l 499 0 l 69 0 l 69 972 m 333 1014 l 333 1181 l 493 1181 l 493 1014 l 333 1014 m 103 1014 l 103 1181 l 263 1181 l 263 1014 l 103 1014 z "},"Ö":{"ha":682,"x_min":69,"x_max":613,"o":"m 385 1014 l 385 1181 l 544 1181 l 544 1014 l 385 1014 m 154 1014 l 154 1181 l 314 1181 l 314 1014 l 154 1014 m 264 700 l 264 254 q 283 201 264 221 q 343 181 301 181 q 401 201 385 181 q 418 254 418 221 l 418 700 q 404 767 418 742 q 344 792 390 792 q 281 767 299 792 q 264 700 264 743 m 71 693 q 85 822 71 768 q 131 911 99 876 q 217 963 164 946 q 347 979 269 979 q 479 962 428 979 q 560 909 531 944 q 601 819 590 874 q 613 693 613 765 l 613 244 q 599 140 613 186 q 555 60 586 93 q 472 10 524 28 q 346 -7 421 -7 q 136 58 203 -7 q 71 244 69 124 l 71 693 z "},"Ü":{"ha":682,"x_min":69,"x_max":613,"o":"m 376 1014 l 376 1181 l 536 1181 l 536 1014 l 376 1014 m 146 1014 l 146 1181 l 306 1181 l 306 1014 l 146 1014 m 265 972 l 265 694 l 265 369 q 278 225 265 269 q 344 181 292 181 q 385 192 371 181 q 408 226 400 203 q 417 284 415 249 q 418 369 418 319 l 418 694 l 418 972 l 613 972 l 613 244 q 599 140 613 186 q 555 60 586 93 q 472 10 524 28 q 346 -7 421 -7 q 136 59 203 -7 q 71 246 69 125 l 71 972 l 265 972 z "},"Ï":{"ha":529,"x_min":69,"x_max":460,"o":"m 300 1014 l 300 1181 l 460 1181 l 460 1014 l 300 1014 m 69 1014 l 69 1181 l 229 1181 l 229 1014 l 69 1014 m 164 0 l 164 972 l 358 972 l 358 0 l 164 0 z "},"`":{"ha":326,"x_min":36,"x_max":258,"o":"m 122 1042 l 36 1201 l 176 1201 l 258 1042 l 122 1042 z "},"´":{"ha":361,"x_min":69,"x_max":292,"o":"m 69 1042 l 151 1201 l 292 1201 l 206 1042 l 69 1042 z "},"À":{"ha":588,"x_min":7,"x_max":581,"o":"m 199 972 l 418 972 l 581 0 l 396 0 l 378 122 l 219 122 l 193 0 l 7 0 l 199 972 m 249 310 l 357 310 l 308 669 l 249 310 m 236 1042 l 150 1201 l 290 1201 l 372 1042 l 236 1042 z "},"Á":{"ha":588,"x_min":7,"x_max":581,"o":"m 199 972 l 418 972 l 581 0 l 396 0 l 378 122 l 219 122 l 193 0 l 7 0 l 199 972 m 249 310 l 357 310 l 308 669 l 249 310 m 263 1042 l 344 1201 l 485 1201 l 399 1042 l 263 1042 z "},"È":{"ha":540,"x_min":69,"x_max":499,"o":"m 69 972 l 499 972 l 499 785 l 264 785 l 264 592 l 429 592 l 429 404 l 264 404 l 264 188 l 499 188 l 499 0 l 69 0 l 69 972 m 206 1042 l 119 1201 l 260 1201 l 342 1042 l 206 1042 z "},"É":{"ha":540,"x_min":69,"x_max":499,"o":"m 69 972 l 499 972 l 499 785 l 264 785 l 264 592 l 429 592 l 429 404 l 264 404 l 264 188 l 499 188 l 499 0 l 69 0 l 69 972 m 218 1042 l 300 1201 l 440 1201 l 354 1042 l 218 1042 z "},"Ì":{"ha":394,"x_min":69,"x_max":325,"o":"m 156 1042 l 69 1201 l 210 1201 l 292 1042 l 156 1042 m 131 0 l 131 972 l 325 972 l 325 0 l 131 0 z "},"Í":{"ha":361,"x_min":71,"x_max":307,"o":"m 71 0 l 71 972 l 265 972 l 265 0 l 71 0 m 85 1042 l 167 1201 l 307 1201 l 221 1042 l 85 1042 z "},"Ò":{"ha":682,"x_min":69,"x_max":613,"o":"m 279 1042 l 193 1201 l 333 1201 l 415 1042 l 279 1042 m 264 700 l 264 254 q 283 201 264 221 q 343 181 301 181 q 401 201 385 181 q 418 254 418 221 l 418 700 q 404 767 418 742 q 344 792 390 792 q 281 767 299 792 q 264 700 264 743 m 71 693 q 85 822 71 768 q 131 911 99 876 q 217 963 164 946 q 347 979 269 979 q 479 962 428 979 q 560 909 531 944 q 601 819 590 874 q 613 693 613 765 l 613 244 q 599 140 613 186 q 555 60 586 93 q 472 10 524 28 q 346 -7 421 -7 q 136 58 203 -7 q 71 244 69 124 l 71 693 z "},"Ó":{"ha":682,"x_min":69,"x_max":613,"o":"m 264 700 l 264 254 q 283 201 264 221 q 343 181 301 181 q 401 201 385 181 q 418 254 418 221 l 418 700 q 404 767 418 742 q 344 792 390 792 q 281 767 299 792 q 264 700 264 743 m 71 693 q 85 822 71 768 q 131 911 99 876 q 217 963 164 946 q 347 979 269 979 q 479 962 428 979 q 560 909 531 944 q 601 819 590 874 q 613 693 613 765 l 613 244 q 599 140 613 186 q 555 60 586 93 q 472 10 524 28 q 346 -7 421 -7 q 136 58 203 -7 q 71 244 69 124 l 71 693 m 276 1042 l 358 1201 l 499 1201 l 413 1042 l 276 1042 z "},"Ù":{"ha":682,"x_min":69,"x_max":613,"o":"m 265 972 l 265 694 l 265 369 q 278 225 265 269 q 344 181 292 181 q 385 192 371 181 q 408 226 400 203 q 417 284 415 249 q 418 369 418 319 l 418 694 l 418 972 l 613 972 l 613 244 q 599 140 613 186 q 555 60 586 93 q 472 10 524 28 q 346 -7 421 -7 q 136 59 203 -7 q 71 246 69 125 l 71 972 l 265 972 m 272 1042 l 186 1201 l 326 1201 l 408 1042 l 272 1042 z "},"Ú":{"ha":682,"x_min":69,"x_max":613,"o":"m 265 972 l 265 694 l 265 369 q 278 225 265 269 q 344 181 292 181 q 385 192 371 181 q 408 226 400 203 q 417 284 415 249 q 418 369 418 319 l 418 694 l 418 972 l 613 972 l 613 244 q 599 140 613 186 q 555 60 586 93 q 472 10 524 28 q 346 -7 421 -7 q 136 59 203 -7 q 71 246 69 125 l 71 972 l 265 972 m 297 1042 l 379 1201 l 519 1201 l 433 1042 l 297 1042 z "},"Ý":{"ha":689,"x_min":7,"x_max":682,"o":"m 257 357 l 7 972 l 188 972 l 357 639 l 508 972 l 682 972 l 451 357 l 451 0 l 257 0 l 257 357 m 272 1042 l 354 1201 l 494 1201 l 408 1042 l 272 1042 z "},"¸":{"ha":650,"x_min":217,"x_max":447,"o":"m 376 65 l 376 -36 q 388 -62 376 -53 q 412 -80 399 -71 q 436 -101 425 -89 q 447 -139 447 -114 q 418 -225 447 -197 q 324 -253 389 -253 q 239 -225 261 -253 q 217 -142 217 -197 l 217 -117 l 293 -117 l 293 -142 q 325 -178 293 -178 q 356 -168 343 -178 q 368 -142 368 -158 q 356 -109 368 -121 q 331 -87 344 -97 q 306 -67 318 -78 q 294 -36 294 -56 l 294 65 l 376 65 z "},"Ç":{"ha":682,"x_min":69,"x_max":613,"o":"m 418 635 l 418 700 q 404 767 418 742 q 344 792 390 792 q 281 767 299 792 q 264 700 264 743 l 264 254 q 283 201 264 221 q 343 181 301 181 q 401 201 385 181 q 418 254 418 221 l 418 329 l 613 329 l 613 244 q 599 140 613 186 q 555 60 586 93 q 472 10 524 28 q 346 -7 421 -7 q 136 58 203 -7 q 71 244 69 124 l 71 693 q 85 822 71 768 q 131 911 99 876 q 217 963 164 946 q 347 979 269 979 q 479 962 428 979 q 560 909 531 944 q 601 819 590 874 q 613 693 613 765 l 613 635 l 418 635 m 613 329 l 418 329 l 613 329 m 390 79 l 390 -22 q 401 -48 390 -39 q 426 -66 413 -57 q 450 -87 439 -75 q 461 -125 461 -100 q 432 -211 461 -183 q 338 -239 403 -239 q 253 -211 275 -239 q 231 -128 231 -183 l 231 -103 l 307 -103 l 307 -128 q 339 -164 307 -164 q 369 -154 357 -164 q 382 -128 382 -144 q 370 -95 382 -107 q 345 -74 358 -83 q 320 -53 332 -64 q 308 -22 308 -42 l 308 79 l 390 79 z "},"¿":{"ha":681,"x_min":69,"x_max":611,"o":"m 265 686 l 265 604 q 288 517 265 556 q 340 442 311 479 q 391 364 368 404 q 414 272 414 324 q 399 206 414 231 q 339 181 385 181 q 278 206 294 181 q 260 271 261 231 l 260 333 l 69 333 l 69 272 q 83 151 69 203 q 126 64 96 99 q 208 11 157 29 q 336 -7 260 -7 q 470 10 417 -7 q 555 63 524 28 q 599 152 586 99 q 611 278 611 206 q 589 383 611 340 q 540 461 567 426 q 490 529 513 496 q 468 606 468 563 l 468 686 l 265 686 m 458 972 l 458 785 l 271 785 l 271 972 l 458 972 z "},"¡":{"ha":333,"x_min":69,"x_max":264,"o":"m 69 0 l 97 681 l 236 681 l 264 0 l 69 0 m 263 972 l 263 785 l 75 785 l 75 972 l 263 972 z "},"¶":{"ha":729,"x_min":69,"x_max":660,"o":"m 333 -125 l 333 389 l 332 389 q 128 461 188 389 q 69 694 69 533 q 81 825 69 772 q 123 910 93 878 q 203 958 153 943 q 328 972 253 972 l 660 972 l 660 -125 l 542 -125 l 542 840 l 451 840 l 451 -125 l 333 -125 z "},"º":{"ha":356,"x_min":14,"x_max":286,"o":"m 107 857 q 119 828 107 840 q 147 817 131 817 q 175 828 164 817 q 186 857 186 840 q 175 885 186 874 q 147 896 164 896 q 119 885 131 896 q 107 857 107 874 m 25 857 q 60 944 25 908 q 147 979 96 979 q 234 944 199 979 q 269 857 269 908 q 234 770 269 806 q 147 735 199 735 q 60 770 96 735 q 25 857 25 806 m 14 703 l 286 703 l 286 639 l 14 639 l 14 703 z "},"Å":{"ha":588,"x_min":7,"x_max":581,"o":"m 265 1160 q 277 1131 265 1143 q 306 1119 289 1119 q 333 1131 322 1119 q 344 1160 344 1143 q 333 1188 344 1176 q 306 1199 322 1199 q 277 1188 289 1199 q 265 1160 265 1176 m 183 1160 q 219 1247 183 1211 q 306 1282 254 1282 q 392 1247 357 1282 q 428 1160 428 1211 q 392 1073 428 1108 q 306 1038 357 1038 q 219 1073 254 1038 q 183 1160 183 1108 m 199 972 l 418 972 l 581 0 l 396 0 l 378 122 l 219 122 l 193 0 l 7 0 l 199 972 m 249 310 l 357 310 l 308 669 l 249 310 z "},"…":{"ha":924,"x_min":69,"x_max":854,"o":"m 69 0 l 69 188 l 257 188 l 257 0 l 69 0 m 368 0 l 368 188 l 556 188 l 556 0 l 368 0 m 667 0 l 667 188 l 854 188 l 854 0 l 667 0 z "},"Æ":{"ha":899,"x_min":7,"x_max":857,"o":"m 428 122 l 250 122 l 211 0 l 7 0 l 361 972 l 857 972 l 857 785 l 622 785 l 622 592 l 788 592 l 788 404 l 622 404 l 622 188 l 857 188 l 857 0 l 428 0 l 428 122 m 306 310 l 428 310 l 428 765 l 306 310 z "},"N":{"ha":701,"x_min":69,"x_max":632,"o":"m 69 972 l 264 972 l 438 492 l 438 972 l 632 972 l 632 0 l 438 0 l 264 465 l 264 0 l 69 0 l 69 972 z "},"a":{"ha":588,"x_min":7,"x_max":581,"o":"m 199 972 l 418 972 l 581 0 l 396 0 l 378 122 l 219 122 l 193 0 l 7 0 l 199 972 m 249 310 l 357 310 l 308 669 l 249 310 z "},"b":{"ha":714,"x_min":69,"x_max":644,"o":"m 69 0 l 69 972 l 338 972 q 467 960 413 972 q 556 919 521 949 q 606 840 590 890 q 622 711 622 789 q 615 639 622 669 q 597 585 608 608 q 568 542 585 561 q 532 504 551 522 q 572 473 551 493 q 608 424 592 453 q 634 360 624 396 q 644 282 644 325 q 622 147 644 201 q 559 60 600 93 q 460 14 518 28 q 331 0 401 0 l 69 0 m 264 194 l 301 194 q 347 195 324 194 q 390 206 371 196 q 422 240 410 215 q 433 310 433 264 q 322 431 433 431 l 264 431 l 264 194 m 264 778 l 264 625 l 343 625 q 393 634 375 625 q 421 657 411 643 q 433 685 431 671 q 435 711 435 700 q 411 756 433 733 q 343 778 389 778 l 264 778 z "},"c":{"ha":682,"x_min":69,"x_max":613,"o":"m 418 635 l 418 700 q 404 767 418 742 q 344 792 390 792 q 281 767 299 792 q 264 700 264 743 l 264 254 q 283 201 264 221 q 343 181 301 181 q 401 201 385 181 q 418 254 418 221 l 418 329 l 613 329 l 613 244 q 599 140 613 186 q 555 60 586 93 q 472 10 524 28 q 346 -7 421 -7 q 136 58 203 -7 q 71 244 69 124 l 71 693 q 85 822 71 768 q 131 911 99 876 q 217 963 164 946 q 347 979 269 979 q 479 962 428 979 q 560 909 531 944 q 601 819 590 874 q 613 693 613 765 l 613 635 l 418 635 m 613 329 l 418 329 l 613 329 z "},"d":{"ha":626,"x_min":69,"x_max":557,"o":"m 69 0 l 69 972 l 313 972 q 434 953 386 972 q 509 897 482 933 q 547 810 536 861 q 557 694 557 758 l 557 247 q 544 145 557 190 q 503 67 532 100 q 427 17 474 35 q 313 0 381 0 l 69 0 m 371 633 q 368 684 371 658 q 355 731 365 710 q 323 765 344 751 q 264 778 301 778 l 264 194 l 263 194 q 349 227 328 194 q 371 310 371 260 l 371 633 z "},"e":{"ha":540,"x_min":69,"x_max":499,"o":"m 69 972 l 499 972 l 499 785 l 264 785 l 264 592 l 429 592 l 429 404 l 264 404 l 264 188 l 499 188 l 499 0 l 69 0 l 69 972 z "},"f":{"ha":540,"x_min":69,"x_max":499,"o":"m 69 972 l 499 972 l 499 785 l 264 785 l 264 513 l 429 513 l 429 325 l 264 325 l 264 0 l 69 0 l 69 972 z "},"g":{"ha":685,"x_min":69,"x_max":657,"o":"m 374 481 l 657 481 l 657 293 q 635 288 644 293 q 619 273 626 283 q 613 244 613 263 q 612 194 613 224 q 614 130 611 164 q 626 60 617 96 q 656 -8 636 25 l 472 -8 q 467 -1 469 -4 q 463 7 465 1 q 346 -7 415 -7 q 136 58 203 -7 q 71 244 69 124 l 71 693 q 85 822 71 768 q 131 911 99 876 q 217 963 164 946 q 347 979 269 979 q 479 962 428 979 q 560 909 531 944 q 601 819 590 874 q 613 693 613 765 l 613 635 l 418 635 l 418 700 q 404 767 418 742 q 344 792 390 792 q 281 767 299 792 q 264 700 264 743 l 264 254 q 283 201 264 221 q 343 181 301 181 q 401 201 385 181 q 418 254 418 221 q 411 276 418 269 q 396 288 404 283 q 374 293 386 292 l 374 481 z "},"h":{"ha":701,"x_min":69,"x_max":632,"o":"m 69 0 l 69 972 l 265 972 l 265 599 l 438 599 l 438 972 l 632 972 l 632 0 l 438 0 l 438 411 l 265 411 l 265 0 l 69 0 z "},"i":{"ha":333,"x_min":69,"x_max":264,"o":"m 69 0 l 69 972 l 264 972 l 264 0 l 69 0 z "},"j":{"ha":682,"x_min":69,"x_max":613,"o":"m 274 972 l 613 972 l 613 244 q 599 140 613 186 q 555 60 586 93 q 472 10 524 28 q 346 -7 421 -7 q 136 59 203 -7 q 71 246 69 125 l 71 403 l 265 403 l 265 369 q 278 225 265 269 q 344 181 292 181 q 385 192 371 181 q 408 226 400 203 q 417 284 415 249 q 418 369 418 319 l 418 785 l 274 785 l 274 972 z "},"k":{"ha":606,"x_min":69,"x_max":590,"o":"m 69 0 l 69 972 l 264 972 l 264 700 l 411 972 l 590 972 l 392 504 l 590 0 l 404 0 l 264 274 l 264 0 l 69 0 z "},"l":{"ha":471,"x_min":69,"x_max":443,"o":"m 69 972 l 264 972 l 264 188 l 443 188 l 443 0 l 69 0 l 69 972 z "},"m":{"ha":715,"x_min":69,"x_max":646,"o":"m 451 599 l 357 146 l 264 599 l 264 0 l 69 0 l 69 972 l 264 972 l 357 633 l 451 972 l 646 972 l 646 0 l 451 0 l 451 599 z "},"n":{"ha":701,"x_min":69,"x_max":632,"o":"m 69 972 l 264 972 l 438 492 l 438 972 l 632 972 l 632 0 l 438 0 l 264 465 l 264 0 l 69 0 l 69 972 z "},"o":{"ha":682,"x_min":69,"x_max":613,"o":"m 264 700 l 264 254 q 283 201 264 221 q 343 181 301 181 q 401 201 385 181 q 418 254 418 221 l 418 700 q 404 767 418 742 q 344 792 390 792 q 281 767 299 792 q 264 700 264 743 m 71 693 q 85 822 71 768 q 131 911 99 876 q 217 963 164 946 q 347 979 269 979 q 479 962 428 979 q 560 909 531 944 q 601 819 590 874 q 613 693 613 765 l 613 244 q 599 140 613 186 q 555 60 586 93 q 472 10 524 28 q 346 -7 421 -7 q 136 58 203 -7 q 71 244 69 124 l 71 693 z "},"p":{"ha":692,"x_min":69,"x_max":622,"o":"m 69 0 l 69 972 l 360 972 q 485 959 435 972 q 567 914 536 946 q 610 828 597 882 q 622 694 622 775 q 563 461 622 533 q 360 389 504 389 l 264 389 l 264 0 l 69 0 m 264 778 l 264 583 l 319 583 q 382 594 358 583 q 417 620 406 604 q 432 656 429 636 q 435 694 435 675 q 406 756 433 733 q 319 778 378 778 l 264 778 z "},"q":{"ha":682,"x_min":69,"x_max":613,"o":"m 71 693 q 85 822 71 768 q 131 911 99 876 q 217 963 164 946 q 347 979 269 979 q 479 962 428 979 q 560 909 531 944 q 601 819 590 874 q 613 693 613 765 l 613 244 q 593 123 613 175 q 529 39 574 71 q 542 17 535 28 q 558 -3 549 7 q 578 -22 567 -14 l 397 -22 q 386 -14 397 -22 l 375 -6 q 360 -7 368 -7 q 346 -7 353 -7 q 136 58 203 -7 q 71 244 69 124 l 71 693 m 264 700 l 264 254 q 283 201 264 221 q 343 181 301 181 q 401 201 385 181 q 418 254 418 221 l 418 700 q 404 767 418 742 q 344 792 390 792 q 281 767 299 792 q 264 700 264 743 m 338 172 q 310 207 324 188 q 286 238 297 226 l 446 238 q 467 216 457 232 q 486 189 476 200 l 338 172 z "},"r":{"ha":692,"x_min":69,"x_max":622,"o":"m 69 0 l 69 972 l 338 972 q 467 958 413 972 q 556 910 521 943 q 606 825 590 878 q 622 694 622 772 q 596 553 622 611 q 531 469 569 496 q 559 436 544 456 q 585 393 574 417 q 603 343 596 369 q 611 289 611 317 l 611 0 l 417 0 l 417 261 q 411 310 417 286 q 394 351 406 333 q 364 378 383 368 q 318 389 344 389 l 264 389 l 264 0 l 69 0 m 264 778 l 264 583 l 319 583 q 382 594 358 583 q 417 620 406 604 q 432 656 429 636 q 435 694 435 675 q 406 756 433 733 q 319 778 378 778 l 264 778 z "},"s":{"ha":654,"x_min":56,"x_max":599,"o":"m 57 693 q 71 822 57 768 q 117 911 85 876 q 201 963 149 946 q 332 979 254 979 q 464 962 413 979 q 545 909 515 944 q 587 820 575 874 q 599 694 599 767 l 404 694 l 404 700 q 389 767 404 742 q 328 792 374 792 q 266 764 282 792 q 250 693 250 736 q 276 628 250 657 q 340 573 301 600 q 424 516 379 546 q 508 448 469 486 q 573 360 547 410 q 599 244 599 311 q 585 140 599 186 q 541 60 572 93 q 458 10 510 28 q 332 -7 407 -7 q 122 58 189 -7 q 57 244 56 124 l 57 281 l 250 296 l 250 254 q 268 201 250 221 q 328 181 286 181 q 387 196 369 181 q 404 244 404 211 q 378 304 404 275 q 314 363 353 333 q 231 425 275 392 q 147 497 186 458 q 83 584 108 536 q 57 693 57 632 z "},"t":{"ha":669,"x_min":28,"x_max":642,"o":"m 28 972 l 642 972 l 642 785 l 432 785 l 432 0 l 238 0 l 238 785 l 28 785 l 28 972 z "},"u":{"ha":682,"x_min":69,"x_max":613,"o":"m 265 972 l 265 694 l 265 369 q 278 225 265 269 q 344 181 292 181 q 385 192 371 181 q 408 226 400 203 q 417 284 415 249 q 418 369 418 319 l 418 694 l 418 972 l 613 972 l 613 244 q 599 140 613 186 q 555 60 586 93 q 472 10 524 28 q 346 -7 421 -7 q 136 59 203 -7 q 71 246 69 125 l 71 972 l 265 972 z "},"v":{"ha":647,"x_min":7,"x_max":640,"o":"m 7 972 l 194 972 l 325 554 l 453 972 l 640 972 l 324 -1 l 7 972 z "},"w":{"ha":1072,"x_min":7,"x_max":1065,"o":"m 7 972 l 201 972 l 324 565 l 525 972 l 708 565 l 871 972 l 1065 972 l 703 -1 l 524 449 l 324 -1 l 7 972 z "},"x":{"ha":708,"x_min":7,"x_max":701,"o":"m 7 0 l 214 493 l 7 972 l 222 972 l 350 728 l 483 972 l 699 972 l 476 493 l 701 0 l 476 0 l 349 256 l 232 0 l 7 0 z "},"y":{"ha":689,"x_min":7,"x_max":682,"o":"m 257 357 l 7 972 l 188 972 l 357 639 l 508 972 l 682 972 l 451 357 l 451 0 l 257 0 l 257 357 z "},"z":{"ha":599,"x_min":14,"x_max":585,"o":"m 585 188 l 585 0 l 14 0 l 14 188 l 353 785 l 14 785 l 14 972 l 569 972 l 571 785 l 572 785 l 229 188 l 585 188 z "},"é":{"ha":540,"x_min":69,"x_max":499,"o":"m 69 972 l 499 972 l 499 785 l 264 785 l 264 592 l 429 592 l 429 404 l 264 404 l 264 188 l 499 188 l 499 0 l 69 0 l 69 972 m 218 1042 l 300 1201 l 440 1201 l 354 1042 l 218 1042 z "},"ë":{"ha":540,"x_min":69,"x_max":499,"o":"m 69 972 l 499 972 l 499 785 l 264 785 l 264 592 l 429 592 l 429 404 l 264 404 l 264 188 l 499 188 l 499 0 l 69 0 l 69 972 m 333 1014 l 333 1181 l 493 1181 l 493 1014 l 333 1014 m 103 1014 l 103 1181 l 263 1181 l 263 1014 l 103 1014 z "},"í":{"ha":361,"x_min":71,"x_max":307,"o":"m 71 0 l 71 972 l 265 972 l 265 0 l 71 0 m 85 1042 l 167 1201 l 307 1201 l 221 1042 l 85 1042 z "},"î":{"ha":360,"x_min":-14,"x_max":374,"o":"m 83 0 l 83 972 l 278 972 l 278 0 l 83 0 m 374 1042 l 229 1042 l 176 1119 l 131 1042 l -14 1042 l 124 1226 l 233 1226 l 374 1042 z "},"ý":{"ha":689,"x_min":7,"x_max":682,"o":"m 257 357 l 7 972 l 188 972 l 357 639 l 508 972 l 682 972 l 451 357 l 451 0 l 257 0 l 257 357 m 272 1042 l 354 1201 l 494 1201 l 408 1042 l 272 1042 z "},"ü":{"ha":682,"x_min":69,"x_max":613,"o":"m 376 1014 l 376 1181 l 536 1181 l 536 1014 l 376 1014 m 146 1014 l 146 1181 l 306 1181 l 306 1014 l 146 1014 m 265 972 l 265 694 l 265 369 q 278 225 265 269 q 344 181 292 181 q 385 192 371 181 q 408 226 400 203 q 417 284 415 249 q 418 369 418 319 l 418 694 l 418 972 l 613 972 l 613 244 q 599 140 613 186 q 555 60 586 93 q 472 10 524 28 q 346 -7 421 -7 q 136 59 203 -7 q 71 246 69 125 l 71 972 l 265 972 z "},"ç":{"ha":682,"x_min":69,"x_max":613,"o":"m 418 635 l 418 700 q 404 767 418 742 q 344 792 390 792 q 281 767 299 792 q 264 700 264 743 l 264 254 q 283 201 264 221 q 343 181 301 181 q 401 201 385 181 q 418 254 418 221 l 418 329 l 613 329 l 613 244 q 599 140 613 186 q 555 60 586 93 q 472 10 524 28 q 346 -7 421 -7 q 136 58 203 -7 q 71 244 69 124 l 71 693 q 85 822 71 768 q 131 911 99 876 q 217 963 164 946 q 347 979 269 979 q 479 962 428 979 q 560 909 531 944 q 601 819 590 874 q 613 693 613 765 l 613 635 l 418 635 m 613 329 l 418 329 l 613 329 m 390 79 l 390 -22 q 401 -48 390 -39 q 426 -66 413 -57 q 450 -87 439 -75 q 461 -125 461 -100 q 432 -211 461 -183 q 338 -239 403 -239 q 253 -211 275 -239 q 231 -128 231 -183 l 231 -103 l 307 -103 l 307 -128 q 339 -164 307 -164 q 369 -154 357 -164 q 382 -128 382 -144 q 370 -95 382 -107 q 345 -74 358 -83 q 320 -53 332 -64 q 308 -22 308 -42 l 308 79 l 390 79 z "},"ö":{"ha":682,"x_min":69,"x_max":613,"o":"m 385 1014 l 385 1181 l 544 1181 l 544 1014 l 385 1014 m 154 1014 l 154 1181 l 314 1181 l 314 1014 l 154 1014 m 264 700 l 264 254 q 283 201 264 221 q 343 181 301 181 q 401 201 385 181 q 418 254 418 221 l 418 700 q 404 767 418 742 q 344 792 390 792 q 281 767 299 792 q 264 700 264 743 m 71 693 q 85 822 71 768 q 131 911 99 876 q 217 963 164 946 q 347 979 269 979 q 479 962 428 979 q 560 909 531 944 q 601 819 590 874 q 613 693 613 765 l 613 244 q 599 140 613 186 q 555 60 586 93 q 472 10 524 28 q 346 -7 421 -7 q 136 58 203 -7 q 71 244 69 124 l 71 693 z "},"ô":{"ha":682,"x_min":69,"x_max":613,"o":"m 264 700 l 264 254 q 283 201 264 221 q 343 181 301 181 q 401 201 385 181 q 418 254 418 221 l 418 700 q 404 767 418 742 q 344 792 390 792 q 281 767 299 792 q 264 700 264 743 m 71 693 q 85 822 71 768 q 131 911 99 876 q 217 963 164 946 q 347 979 269 979 q 479 962 428 979 q 560 909 531 944 q 601 819 590 874 q 613 693 613 765 l 613 244 q 599 140 613 186 q 555 60 586 93 q 472 10 524 28 q 346 -7 421 -7 q 136 58 203 -7 q 71 244 69 124 l 71 693 m 543 1042 l 399 1042 l 346 1119 l 300 1042 l 156 1042 l 293 1226 l 403 1226 l 543 1042 z "},"ó":{"ha":682,"x_min":69,"x_max":613,"o":"m 264 700 l 264 254 q 283 201 264 221 q 343 181 301 181 q 401 201 385 181 q 418 254 418 221 l 418 700 q 404 767 418 742 q 344 792 390 792 q 281 767 299 792 q 264 700 264 743 m 71 693 q 85 822 71 768 q 131 911 99 876 q 217 963 164 946 q 347 979 269 979 q 479 962 428 979 q 560 909 531 944 q 601 819 590 874 q 613 693 613 765 l 613 244 q 599 140 613 186 q 555 60 586 93 q 472 10 524 28 q 346 -7 421 -7 q 136 58 203 -7 q 71 244 69 124 l 71 693 m 276 1042 l 358 1201 l 499 1201 l 413 1042 l 276 1042 z "},"ä":{"ha":588,"x_min":7,"x_max":581,"o":"m 344 1014 l 344 1181 l 504 1181 l 504 1014 l 344 1014 m 114 1014 l 114 1181 l 274 1181 l 274 1014 l 114 1014 m 199 972 l 418 972 l 581 0 l 396 0 l 378 122 l 219 122 l 193 0 l 7 0 l 199 972 m 249 310 l 357 310 l 308 669 l 249 310 z "},"â":{"ha":588,"x_min":7,"x_max":581,"o":"m 199 972 l 418 972 l 581 0 l 396 0 l 378 122 l 219 122 l 193 0 l 7 0 l 199 972 m 249 310 l 357 310 l 308 669 l 249 310 m 504 1042 l 360 1042 l 307 1119 l 261 1042 l 117 1042 l 254 1226 l 364 1226 l 504 1042 z "},"á":{"ha":588,"x_min":7,"x_max":581,"o":"m 199 972 l 418 972 l 581 0 l 396 0 l 378 122 l 219 122 l 193 0 l 7 0 l 199 972 m 249 310 l 357 310 l 308 669 l 249 310 m 263 1042 l 344 1201 l 485 1201 l 399 1042 l 263 1042 z "},"ã":{"ha":588,"x_min":7,"x_max":581,"o":"m 199 972 l 418 972 l 581 0 l 396 0 l 378 122 l 219 122 l 193 0 l 7 0 l 199 972 m 249 310 l 357 310 l 308 669 l 249 310 m 50 1079 q 90 1156 67 1122 q 138 1207 110 1183 q 201 1232 165 1231 q 250 1221 229 1232 q 290 1197 271 1210 q 331 1172 310 1183 q 379 1160 351 1160 q 414 1171 399 1160 q 442 1197 429 1182 q 468 1236 456 1214 l 561 1165 q 511 1100 538 1128 q 459 1055 488 1075 q 400 1035 431 1035 q 340 1045 358 1035 q 308 1069 321 1056 q 283 1092 296 1082 q 239 1103 269 1103 q 205 1092 219 1103 q 179 1065 190 1081 q 162 1035 168 1050 q 153 1014 156 1021 l 50 1079 z "},"à":{"ha":588,"x_min":7,"x_max":581,"o":"m 199 972 l 418 972 l 581 0 l 396 0 l 378 122 l 219 122 l 193 0 l 7 0 l 199 972 m 249 310 l 357 310 l 308 669 l 249 310 m 236 1042 l 150 1201 l 290 1201 l 372 1042 l 236 1042 z "},"è":{"ha":540,"x_min":69,"x_max":499,"o":"m 69 972 l 499 972 l 499 785 l 264 785 l 264 592 l 429 592 l 429 404 l 264 404 l 264 188 l 499 188 l 499 0 l 69 0 l 69 972 m 206 1042 l 119 1201 l 260 1201 l 342 1042 l 206 1042 z "},"å":{"ha":588,"x_min":7,"x_max":581,"o":"m 265 1160 q 277 1131 265 1143 q 306 1119 289 1119 q 333 1131 322 1119 q 344 1160 344 1143 q 333 1188 344 1176 q 306 1199 322 1199 q 277 1188 289 1199 q 265 1160 265 1176 m 183 1160 q 219 1247 183 1211 q 306 1282 254 1282 q 392 1247 357 1282 q 428 1160 428 1211 q 392 1073 428 1108 q 306 1038 357 1038 q 219 1073 254 1038 q 183 1160 183 1108 m 199 972 l 418 972 l 581 0 l 396 0 l 378 122 l 219 122 l 193 0 l 7 0 l 199 972 m 249 310 l 357 310 l 308 669 l 249 310 z "},"õ":{"ha":682,"x_min":69,"x_max":613,"o":"m 264 700 l 264 254 q 283 201 264 221 q 343 181 301 181 q 401 201 385 181 q 418 254 418 221 l 418 700 q 404 767 418 742 q 344 792 390 792 q 281 767 299 792 q 264 700 264 743 m 71 693 q 85 822 71 768 q 131 911 99 876 q 217 963 164 946 q 347 979 269 979 q 479 962 428 979 q 560 909 531 944 q 601 819 590 874 q 613 693 613 765 l 613 244 q 599 140 613 186 q 555 60 586 93 q 472 10 524 28 q 346 -7 421 -7 q 136 58 203 -7 q 71 244 69 124 l 71 693 m 86 1076 q 126 1153 103 1119 q 174 1204 146 1181 q 238 1229 201 1228 q 286 1218 265 1229 q 326 1194 307 1207 q 367 1169 346 1181 q 415 1157 388 1157 q 450 1168 435 1157 q 478 1194 465 1179 q 504 1233 492 1211 l 597 1163 q 547 1097 574 1125 q 495 1052 524 1072 q 436 1032 467 1032 q 376 1042 394 1032 q 344 1066 357 1053 q 319 1090 332 1079 q 275 1100 306 1100 q 241 1089 256 1100 q 215 1063 226 1078 q 198 1033 204 1047 q 189 1011 192 1018 l 86 1076 z "},"ù":{"ha":682,"x_min":69,"x_max":613,"o":"m 265 972 l 265 694 l 265 369 q 278 225 265 269 q 344 181 292 181 q 385 192 371 181 q 408 226 400 203 q 417 284 415 249 q 418 369 418 319 l 418 694 l 418 972 l 613 972 l 613 244 q 599 140 613 186 q 555 60 586 93 q 472 10 524 28 q 346 -7 421 -7 q 136 59 203 -7 q 71 246 69 125 l 71 972 l 265 972 m 272 1042 l 186 1201 l 326 1201 l 408 1042 l 272 1042 z "},"ú":{"ha":682,"x_min":69,"x_max":613,"o":"m 265 972 l 265 694 l 265 369 q 278 225 265 269 q 344 181 292 181 q 385 192 371 181 q 408 226 400 203 q 417 284 415 249 q 418 369 418 319 l 418 694 l 418 972 l 613 972 l 613 244 q 599 140 613 186 q 555 60 586 93 q 472 10 524 28 q 346 -7 421 -7 q 136 59 203 -7 q 71 246 69 125 l 71 972 l 265 972 m 297 1042 l 379 1201 l 519 1201 l 433 1042 l 297 1042 z "},"û":{"ha":682,"x_min":69,"x_max":613,"o":"m 265 972 l 265 694 l 265 369 q 278 225 265 269 q 344 181 292 181 q 385 192 371 181 q 408 226 400 203 q 417 284 415 249 q 418 369 418 319 l 418 694 l 418 972 l 613 972 l 613 244 q 599 140 613 186 q 555 60 586 93 q 472 10 524 28 q 346 -7 421 -7 q 136 59 203 -7 q 71 246 69 125 l 71 972 l 265 972 m 542 1042 l 397 1042 l 344 1119 l 299 1042 l 154 1042 l 292 1226 l 401 1226 l 542 1042 z "},"ê":{"ha":540,"x_min":69,"x_max":499,"o":"m 69 972 l 499 972 l 499 785 l 264 785 l 264 592 l 429 592 l 429 404 l 264 404 l 264 188 l 499 188 l 499 0 l 69 0 l 69 972 m 471 1042 l 326 1042 l 274 1119 l 228 1042 l 83 1042 l 221 1226 l 331 1226 l 471 1042 z "},"ì":{"ha":394,"x_min":69,"x_max":325,"o":"m 156 1042 l 69 1201 l 210 1201 l 292 1042 l 156 1042 m 131 0 l 131 972 l 325 972 l 325 0 l 131 0 z "},"ï":{"ha":529,"x_min":69,"x_max":460,"o":"m 300 1014 l 300 1181 l 460 1181 l 460 1014 l 300 1014 m 69 1014 l 69 1181 l 229 1181 l 229 1014 l 69 1014 m 164 0 l 164 972 l 358 972 l 358 0 l 164 0 z "},"ñ":{"ha":701,"x_min":69,"x_max":632,"o":"m 69 972 l 264 972 l 438 492 l 438 972 l 632 972 l 632 0 l 438 0 l 264 465 l 264 0 l 69 0 l 69 972 m 90 1076 q 131 1153 107 1119 q 178 1204 150 1181 q 242 1229 206 1228 q 290 1218 269 1229 q 331 1194 311 1207 q 371 1169 350 1181 q 419 1157 392 1157 q 454 1168 439 1157 q 482 1194 469 1179 q 508 1233 496 1211 l 601 1163 q 551 1097 578 1125 q 499 1052 528 1072 q 440 1032 471 1032 q 380 1042 399 1032 q 349 1066 361 1053 q 323 1090 336 1079 q 279 1100 310 1100 q 245 1089 260 1100 q 219 1063 231 1078 q 202 1033 208 1047 q 193 1011 196 1018 l 90 1076 z "},"ò":{"ha":682,"x_min":69,"x_max":613,"o":"m 279 1042 l 193 1201 l 333 1201 l 415 1042 l 279 1042 m 264 700 l 264 254 q 283 201 264 221 q 343 181 301 181 q 401 201 385 181 q 418 254 418 221 l 418 700 q 404 767 418 742 q 344 792 390 792 q 281 767 299 792 q 264 700 264 743 m 71 693 q 85 822 71 768 q 131 911 99 876 q 217 963 164 946 q 347 979 269 979 q 479 962 428 979 q 560 909 531 944 q 601 819 590 874 q 613 693 613 765 l 613 244 q 599 140 613 186 q 555 60 586 93 q 472 10 524 28 q 346 -7 421 -7 q 136 58 203 -7 q 71 244 69 124 l 71 693 z "},"æ":{"ha":899,"x_min":7,"x_max":857,"o":"m 428 122 l 250 122 l 211 0 l 7 0 l 361 972 l 857 972 l 857 785 l 622 785 l 622 592 l 788 592 l 788 404 l 622 404 l 622 188 l 857 188 l 857 0 l 428 0 l 428 122 m 306 310 l 428 310 l 428 765 l 306 310 z "},"ª":{"ha":356,"x_min":14,"x_max":286,"o":"m 14 497 l 286 497 l 286 547 l 14 547 l 14 497 m 110 972 l 199 972 l 265 579 l 190 579 l 183 629 l 119 629 l 108 579 l 33 579 l 110 972 m 131 704 l 175 704 l 156 849 l 131 704 z "},"°":{"ha":328,"x_min":14,"x_max":258,"o":"m 96 857 q 108 828 96 840 q 136 817 119 817 q 164 828 153 817 q 175 857 175 840 q 164 885 175 874 q 136 896 153 896 q 108 885 119 896 q 96 857 96 874 m 14 857 q 49 944 14 908 q 136 979 85 979 q 223 944 188 979 q 258 857 258 908 q 223 770 258 806 q 136 735 188 735 q 49 770 85 735 q 14 857 14 806 z "}}}
